<?xml version="1.0" standalone="no"?>
<svg xmlns:xlink="http://www.w3.org/1999/xlink" id="wave" style="transform:rotate(0deg); transition: 0.3s" viewBox="0 0 1440 280" version="1.1" xmlns="http://www.w3.org/2000/svg"><defs><linearGradient id="sw-gradient-0" x1="0" x2="0" y1="1" y2="0"><stop stop-color="rgba(31, 26, 33, 1)" offset="0%"/><stop stop-color="rgba(237, 231, 235, 1)" offset="100%"/></linearGradient></defs><path style="transform:translate(0, 0px); opacity:1" fill="url(#sw-gradient-0)" d="M0,140L60,154C120,168,240,196,360,210C480,224,600,224,720,214.7C840,205,960,187,1080,149.3C1200,112,1320,56,1440,28C1560,0,1680,0,1800,37.3C1920,75,2040,149,2160,191.3C2280,233,2400,243,2520,233.3C2640,224,2760,196,2880,186.7C3000,177,3120,187,3240,186.7C3360,187,3480,177,3600,158.7C3720,140,3840,112,3960,107.3C4080,103,4200,121,4320,130.7C4440,140,4560,140,4680,154C4800,168,4920,196,5040,172.7C5160,149,5280,75,5400,60.7C5520,47,5640,93,5760,135.3C5880,177,6000,215,6120,224C6240,233,6360,215,6480,172.7C6600,131,6720,65,6840,37.3C6960,9,7080,19,7200,18.7C7320,19,7440,9,7560,32.7C7680,56,7800,112,7920,135.3C8040,159,8160,149,8280,144.7C8400,140,8520,140,8580,140L8640,140L8640,280L8580,280C8520,280,8400,280,8280,280C8160,280,8040,280,7920,280C7800,280,7680,280,7560,280C7440,280,7320,280,7200,280C7080,280,6960,280,6840,280C6720,280,6600,280,6480,280C6360,280,6240,280,6120,280C6000,280,5880,280,5760,280C5640,280,5520,280,5400,280C5280,280,5160,280,5040,280C4920,280,4800,280,4680,280C4560,280,4440,280,4320,280C4200,280,4080,280,3960,280C3840,280,3720,280,3600,280C3480,280,3360,280,3240,280C3120,280,3000,280,2880,280C2760,280,2640,280,2520,280C2400,280,2280,280,2160,280C2040,280,1920,280,1800,280C1680,280,1560,280,1440,280C1320,280,1200,280,1080,280C960,280,840,280,720,280C600,280,480,280,360,280C240,280,120,280,60,280L0,280Z"/><defs><linearGradient id="sw-gradient-1" x1="0" x2="0" y1="1" y2="0"><stop stop-color="rgba(31, 26, 33, 1)" offset="0%"/><stop stop-color="rgba(31, 26, 33, 1)" offset="100%"/></linearGradient></defs><path style="transform:translate(0, 50px); opacity:0.9" fill="url(#sw-gradient-1)" d="M0,28L60,28C120,28,240,28,360,65.3C480,103,600,177,720,182C840,187,960,121,1080,84C1200,47,1320,37,1440,65.3C1560,93,1680,159,1800,158.7C1920,159,2040,93,2160,74.7C2280,56,2400,84,2520,84C2640,84,2760,56,2880,46.7C3000,37,3120,47,3240,79.3C3360,112,3480,168,3600,168C3720,168,3840,112,3960,102.7C4080,93,4200,131,4320,140C4440,149,4560,131,4680,107.3C4800,84,4920,56,5040,70C5160,84,5280,140,5400,158.7C5520,177,5640,159,5760,154C5880,149,6000,159,6120,144.7C6240,131,6360,93,6480,98C6600,103,6720,149,6840,158.7C6960,168,7080,140,7200,121.3C7320,103,7440,93,7560,116.7C7680,140,7800,196,7920,214.7C8040,233,8160,215,8280,210C8400,205,8520,215,8580,219.3L8640,224L8640,280L8580,280C8520,280,8400,280,8280,280C8160,280,8040,280,7920,280C7800,280,7680,280,7560,280C7440,280,7320,280,7200,280C7080,280,6960,280,6840,280C6720,280,6600,280,6480,280C6360,280,6240,280,6120,280C6000,280,5880,280,5760,280C5640,280,5520,280,5400,280C5280,280,5160,280,5040,280C4920,280,4800,280,4680,280C4560,280,4440,280,4320,280C4200,280,4080,280,3960,280C3840,280,3720,280,3600,280C3480,280,3360,280,3240,280C3120,280,3000,280,2880,280C2760,280,2640,280,2520,280C2400,280,2280,280,2160,280C2040,280,1920,280,1800,280C1680,280,1560,280,1440,280C1320,280,1200,280,1080,280C960,280,840,280,720,280C600,280,480,280,360,280C240,280,120,280,60,280L0,280Z"/></svg>